<svg width="20" height="20" viewBox="0 0 20 20" fill="none" xmlns="http://www.w3.org/2000/svg">
<path d="M18.1726 8.368H17.5013V8.33341H10.0013V11.6667H14.7109C14.0238 13.6072 12.1776 15.0001 10.0013 15.0001C7.24005 15.0001 5.0013 12.7613 5.0013 10.0001C5.0013 7.23883 7.24005 5.00008 10.0013 5.00008C11.2759 5.00008 12.4355 5.48091 13.3184 6.26633L15.6755 3.90925C14.1871 2.52216 12.1963 1.66675 10.0013 1.66675C5.39922 1.66675 1.66797 5.398 1.66797 10.0001C1.66797 14.6022 5.39922 18.3334 10.0013 18.3334C14.6034 18.3334 18.3346 14.6022 18.3346 10.0001C18.3346 9.44133 18.2771 8.89591 18.1726 8.368Z" fill="#FFC107"/>
<path d="M2.625 6.12133L5.36292 8.12925C6.10375 6.29508 7.89792 5.00008 9.9975 5.00008C11.2721 5.00008 12.4317 5.48091 13.3146 6.26633L15.6717 3.90925C14.1833 2.52216 12.1925 1.66675 9.9975 1.66675C6.79667 1.66675 4.02083 3.47383 2.625 6.12133Z" fill="#FF3D00"/>
<path d="M10.0008 18.3331C12.1533 18.3331 14.1091 17.5094 15.5879 16.1698L13.0087 13.9873C12.172 14.621 11.132 14.9998 10.0008 14.9998C7.83328 14.9998 5.99286 13.6177 5.29953 11.689L2.58203 13.7827C3.9612 16.4815 6.76203 18.3331 10.0008 18.3331Z" fill="#4CAF50"/>
<path d="M18.1712 8.36784H17.5V8.33325H10V11.6666H14.7096C14.3796 12.5987 13.78 13.4024 13.0067 13.9878L13.0079 13.987L15.5871 16.1695C15.4046 16.3353 18.3333 14.1666 18.3333 9.99992C18.3333 9.44117 18.2758 8.89575 18.1712 8.36784Z" fill="#1976D2"/>
</svg>
