<svg width="20" height="20" viewBox="0 0 20 20" fill="none" xmlns="http://www.w3.org/2000/svg">
<path fill-rule="evenodd" clip-rule="evenodd" d="M18.75 9.375C18.75 14.5526 14.5526 18.75 9.375 18.75C4.19733 18.75 0 14.5526 0 9.375C0 4.19733 4.19733 0 9.375 0C14.5526 0 18.75 4.19733 18.75 9.375Z" fill="url(#paint0_linear_3108_31975)"/>
<path fill-rule="evenodd" clip-rule="evenodd" d="M18.2988 9.375C18.2988 14.3019 14.3048 18.2959 9.37792 18.2959C4.45104 18.2959 0.457031 14.3019 0.457031 9.375C0.457031 4.44812 4.45104 0.454102 9.37792 0.454102C14.3048 0.454102 18.2988 4.44812 18.2988 9.375Z" fill="white"/>
<path fill-rule="evenodd" clip-rule="evenodd" d="M15.4093 5.50797L10.3922 10.4152V16.5163C10.3922 16.6261 9.91616 16.714 9.37417 16.7214C8.85415 16.714 8.35611 16.6261 8.35611 16.5163V10.4152L3.33903 5.50797C3.25846 5.4274 3.5148 5.04655 3.91031 4.65104C4.30582 4.25553 4.69401 3.99918 4.76725 4.07975L9.36685 8.56949L13.9665 4.07975C14.047 3.99918 14.4279 4.25553 14.8234 4.65104C15.2189 5.04655 15.4826 5.4274 15.4093 5.50797Z" fill="#EC1C24"/>
<defs>
<linearGradient id="paint0_linear_3108_31975" x1="9.375" y1="8.82495e-10" x2="9.375" y2="18.75" gradientUnits="userSpaceOnUse">
<stop offset="1e-07" stop-color="#F5F5F6"/>
<stop offset="1" stop-color="#EDEDEE"/>
</linearGradient>
</defs>
</svg>
