<svg width="20" height="20" viewBox="0 0 20 20" fill="none" xmlns="http://www.w3.org/2000/svg">
<path d="M11.875 4.375V13.75C11.875 13.9158 11.8092 14.0747 11.6919 14.1919C11.5747 14.3092 11.4158 14.375 11.25 14.375C11.0842 14.375 10.9253 14.3092 10.8081 14.1919C10.6908 14.0747 10.625 13.9158 10.625 13.75V9.6875H3.75V13.75C3.75 13.9158 3.68415 14.0747 3.56694 14.1919C3.44973 14.3092 3.29076 14.375 3.125 14.375C2.95924 14.375 2.80027 14.3092 2.68306 14.1919C2.56585 14.0747 2.5 13.9158 2.5 13.75V4.375C2.5 4.20924 2.56585 4.05027 2.68306 3.93306C2.80027 3.81585 2.95924 3.75 3.125 3.75C3.29076 3.75 3.44973 3.81585 3.56694 3.93306C3.68415 4.05027 3.75 4.20924 3.75 4.375V8.4375H10.625V4.375C10.625 4.20924 10.6908 4.05027 10.8081 3.93306C10.9253 3.81585 11.0842 3.75 11.25 3.75C11.4158 3.75 11.5747 3.81585 11.6919 3.93306C11.8092 4.05027 11.875 4.20924 11.875 4.375ZM20 14.375C20 14.5408 19.9342 14.6997 19.8169 14.8169C19.6997 14.9342 19.5408 15 19.375 15H18.75V16.25C18.75 16.4158 18.6842 16.5747 18.5669 16.6919C18.4497 16.8092 18.2908 16.875 18.125 16.875C17.9592 16.875 17.8003 16.8092 17.6831 16.6919C17.5658 16.5747 17.5 16.4158 17.5 16.25V15H13.75C13.6331 14.9999 13.5185 14.967 13.4193 14.905C13.3201 14.8431 13.2403 14.7545 13.189 14.6495C13.1376 14.5444 13.1168 14.427 13.1288 14.3107C13.1408 14.1944 13.1853 14.0837 13.257 13.9914L17.632 8.36641C17.712 8.26376 17.8221 8.18865 17.9468 8.15154C18.0715 8.11444 18.2047 8.1172 18.3278 8.15943C18.4509 8.20167 18.5578 8.28127 18.6335 8.38714C18.7091 8.49301 18.7499 8.61986 18.75 8.75V13.75H19.375C19.5408 13.75 19.6997 13.8158 19.8169 13.9331C19.9342 14.0503 20 14.2092 20 14.375ZM17.5 10.5719L15.0281 13.75H17.5V10.5719Z" fill="white"/>
</svg>
