<svg width="20" height="20" viewBox="0 0 20 20" fill="none" xmlns="http://www.w3.org/2000/svg">
<path d="M11.25 1.25H8.75C7.42436 1.25145 6.15343 1.7787 5.21607 2.71606C4.2787 3.65343 3.75145 4.92436 3.75 6.25V13.75C3.75145 15.0756 4.2787 16.3466 5.21607 17.2839C6.15343 18.2213 7.42436 18.7486 8.75 18.75H11.25C12.5756 18.7486 13.8466 18.2213 14.7839 17.2839C15.7213 16.3466 16.2486 15.0756 16.25 13.75V6.25C16.2486 4.92436 15.7213 3.65343 14.7839 2.71606C13.8466 1.7787 12.5756 1.25145 11.25 1.25ZM15 13.75C14.999 14.7442 14.6035 15.6975 13.9005 16.4005C13.1975 17.1035 12.2442 17.499 11.25 17.5H8.75C7.75576 17.499 6.80253 17.1035 6.09949 16.4005C5.39645 15.6975 5.00103 14.7442 5 13.75V6.25C5.00103 5.25576 5.39645 4.30253 6.09949 3.59949C6.80253 2.89645 7.75576 2.50103 8.75 2.5H11.25C12.2442 2.50103 13.1975 2.89645 13.9005 3.59949C14.6035 4.30253 14.999 5.25576 15 6.25V13.75ZM10.625 6.50859V13.4914L11.4328 12.6828C11.5501 12.5655 11.7091 12.4997 11.875 12.4997C12.0409 12.4997 12.1999 12.5655 12.3172 12.6828C12.4345 12.8001 12.5003 12.9591 12.5003 13.125C12.5003 13.2909 12.4345 13.4499 12.3172 13.5672L10.4422 15.4422C10.3841 15.5003 10.3152 15.5464 10.2393 15.5779C10.1635 15.6093 10.0821 15.6255 10 15.6255C9.91787 15.6255 9.83654 15.6093 9.76066 15.5779C9.68479 15.5464 9.61586 15.5003 9.55781 15.4422L7.68281 13.5672C7.56554 13.4499 7.49965 13.2909 7.49965 13.125C7.49965 12.9591 7.56554 12.8001 7.68281 12.6828C7.80009 12.5655 7.95915 12.4997 8.125 12.4997C8.29085 12.4997 8.44991 12.5655 8.56719 12.6828L9.375 13.4914V6.50859L8.56719 7.31719C8.44991 7.43446 8.29085 7.50035 8.125 7.50035C7.95915 7.50035 7.80009 7.43446 7.68281 7.31719C7.56554 7.19991 7.49965 7.04085 7.49965 6.875C7.49965 6.70915 7.56554 6.55009 7.68281 6.43281L9.55781 4.55781C9.61586 4.4997 9.68479 4.4536 9.76066 4.42215C9.83654 4.3907 9.91787 4.37451 10 4.37451C10.0821 4.37451 10.1635 4.3907 10.2393 4.42215C10.3152 4.4536 10.3841 4.4997 10.4422 4.55781L12.3172 6.43281C12.3753 6.49088 12.4213 6.55982 12.4527 6.63569C12.4842 6.71156 12.5003 6.79288 12.5003 6.875C12.5003 6.95712 12.4842 7.03844 12.4527 7.11431C12.4213 7.19018 12.3753 7.25912 12.3172 7.31719C12.2591 7.37526 12.1902 7.42132 12.1143 7.45275C12.0384 7.48417 11.9571 7.50035 11.875 7.50035C11.7929 7.50035 11.7116 7.48417 11.6357 7.45275C11.5598 7.42132 11.4909 7.37526 11.4328 7.31719L10.625 6.50859Z" fill="#EFEFEF"/>
</svg>
